<svg width="477" height="476" viewBox="0 0 477 476" fill="none" xmlns="http://www.w3.org/2000/svg">
<g clip-path="url(#clip0)">
<path opacity="0.18" d="M44.286 461.933C24.3601 471.575 85.0327 477.198 107.092 475.784L203.941 469.602C208.128 469.338 219.241 469.218 215.981 466.566C199.299 452.987 70.5796 449.2 44.286 461.933Z" fill="#FFC93C"/>
<path opacity="0.27" d="M442.797 369.041C436.605 378.019 429.734 384.538 422.303 387.845C363.724 413.893 346.634 347.106 194.713 400.841C182.919 405.049 170.897 408.591 158.704 411.449C72.497 431.299 33.9634 396.943 21.8752 369.041C16.9616 357.714 16.4024 347.474 18.7833 342.289C27.7795 322.799 19.5822 291.023 2.46061 199.961C-14.661 108.898 61.04 78.6801 119.907 64.3738C157.634 55.2116 176.01 42.6227 184.343 34.7626C194.028 25.511 205.467 18.2919 217.987 13.5307C302.676 -18.0615 343.806 10.3355 394.284 50.6106C405.43 59.4692 417.038 68.9828 429.622 78.4565C495.703 128.309 485.469 307.151 442.797 369.041Z" fill="#FFC93C"/>
<path opacity="0.18" d="M442.796 369.042C436.604 378.02 429.733 384.538 422.303 387.845C363.724 413.894 346.634 347.107 194.713 400.842C82.9471 440.326 35.5371 400.554 21.875 369.042H442.796Z" fill="#FFC93C"/>
<path d="M429.63 116.687V335.053C429.63 339.307 427.94 343.387 424.931 346.395C421.922 349.403 417.842 351.093 413.587 351.093H82.0206C77.7685 351.106 73.6853 349.43 70.6681 346.435C67.6509 343.439 65.9466 339.368 65.9297 335.117V116.687C65.9318 112.434 67.6227 108.356 70.6309 105.348C73.6391 102.34 77.7185 100.65 81.9727 100.648H413.579C415.686 100.647 417.772 101.061 419.719 101.866C421.666 102.671 423.435 103.851 424.925 105.34C426.416 106.829 427.599 108.596 428.406 110.542C429.213 112.488 429.629 114.573 429.63 116.68V116.687Z" fill="white"/>
<path d="M126.858 410.579C126.195 414.852 101.403 459.928 101.403 459.928C108.65 461.238 111.287 466.51 111.287 466.51H88.8359L106.597 410.595C106.597 410.595 107.396 383.867 102.738 369.385C99.6698 359.728 99.8535 348.537 100.341 342.146C100.573 338.951 100.868 336.97 100.868 336.97L134.001 351.94C134.001 351.94 127.521 406.321 126.858 410.579Z" fill="#25233A"/>
<path d="M167.261 466.534H144.515V466.414L140.409 407.639C140.409 407.639 121.186 384.219 110 367.133C98.8149 350.046 100.732 338.76 100.732 338.76H131.332C132.882 339.383 134.976 345.453 136.326 348.497C142.022 361.405 154.95 388.109 156.084 393.229C159.719 409.405 154.75 458.019 154.75 458.019C161.669 458.634 167.261 466.534 167.261 466.534Z" fill="#3F3D56"/>
<path d="M352.986 226.266H109.896V204.77H352.986V226.266ZM110.695 225.467H352.188V205.569H110.695V225.467Z" fill="#FFC93C"/>
<path d="M385.017 204.778H352.979V226.266H385.017V204.778Z" fill="#FFC93C"/>
<path d="M367.28 219.835C370.28 219.835 372.712 217.404 372.712 214.404C372.712 211.404 370.28 208.972 367.28 208.972C364.279 208.972 361.847 211.404 361.847 214.404C361.847 217.404 364.279 219.835 367.28 219.835Z" stroke="white" stroke-width="0.73" stroke-miterlimit="10"/>
<path d="M371.808 217.042L370.777 218.416L376.439 222.664L377.47 221.29L371.808 217.042Z" fill="white"/>
<path d="M429.63 116.687V121.975H65.9219V116.687C65.924 112.433 67.616 108.353 70.6259 105.345C73.6358 102.337 77.7173 100.648 81.9729 100.648H413.579C415.686 100.647 417.772 101.061 419.719 101.866C421.666 102.671 423.435 103.851 424.925 105.34C426.416 106.829 427.599 108.596 428.406 110.542C429.213 112.488 429.629 114.573 429.63 116.68V116.687Z" fill="#FFC93C"/>
<path d="M84.2339 112.454C84.2339 113.127 84.0342 113.785 83.6603 114.344C83.2863 114.904 82.7547 115.34 82.1328 115.598C81.5109 115.855 80.8265 115.923 80.1663 115.791C79.5061 115.66 78.8996 115.336 78.4236 114.86C77.9476 114.384 77.6235 113.778 77.4922 113.118C77.3608 112.458 77.4282 111.773 77.6858 111.152C77.9434 110.53 78.3797 109.998 78.9394 109.625C79.4991 109.251 80.1571 109.051 80.8303 109.051C81.2762 109.05 81.718 109.137 82.1303 109.306C82.5427 109.476 82.9176 109.725 83.2337 110.04C83.5497 110.354 83.8007 110.728 83.9723 111.139C84.1439 111.551 84.2328 111.992 84.2339 112.438V112.454Z" fill="url(#paint0_linear)"/>
<path d="M94.021 112.454C94.021 113.127 93.8214 113.785 93.4474 114.344C93.0734 114.904 92.5418 115.34 91.9199 115.598C91.298 115.855 90.6136 115.923 89.9534 115.791C89.2932 115.66 88.6867 115.336 88.2107 114.86C87.7347 114.384 87.4106 113.778 87.2793 113.118C87.1479 112.458 87.2153 111.773 87.473 111.152C87.7306 110.53 88.1668 109.998 88.7265 109.625C89.2862 109.251 89.9443 109.051 90.6174 109.051C91.0633 109.05 91.5051 109.137 91.9174 109.306C92.3298 109.476 92.7047 109.725 93.0208 110.04C93.3368 110.354 93.5878 110.728 93.7594 111.139C93.931 111.551 94.0199 111.992 94.021 112.438V112.454Z" fill="url(#paint1_linear)"/>
<path d="M103.8 112.454C103.8 113.127 103.601 113.785 103.227 114.344C102.853 114.904 102.321 115.34 101.699 115.598C101.077 115.855 100.393 115.923 99.7327 115.791C99.0725 115.66 98.466 115.336 97.99 114.86C97.514 114.384 97.1899 113.778 97.0586 113.118C96.9272 112.458 96.9946 111.773 97.2522 111.152C97.5098 110.53 97.9461 109.998 98.5058 109.625C99.0655 109.251 99.7235 109.051 100.397 109.051C100.843 109.05 101.284 109.137 101.697 109.306C102.109 109.476 102.484 109.725 102.8 110.04C103.116 110.354 103.367 110.728 103.539 111.139C103.71 111.551 103.799 111.992 103.8 112.438V112.454Z" fill="url(#paint2_linear)"/>
<path d="M108.01 310.858L100.564 324.19C99.5722 323.495 98.6323 322.728 97.7517 321.897C91.9592 316.569 80.1747 301.991 91.5518 278.93C91.5518 278.93 96.7849 264.672 99.7251 258.569C100.102 257.595 100.642 256.693 101.323 255.901C103.065 254.695 108.01 310.858 108.01 310.858Z" fill="#FFC93C"/>
<path d="M141.955 231.98C145.41 229.576 144.35 222.079 139.587 215.235C134.824 208.391 128.161 204.791 124.706 207.195C121.25 209.599 122.31 217.095 127.074 223.94C131.837 230.784 138.499 234.383 141.955 231.98Z" stroke="#3F3D56" stroke-width="2" stroke-miterlimit="10"/>
<path d="M141.016 232.704L145.602 239.046L148.014 237.241L143.373 231.298L141.016 232.704Z" fill="#3F3D56"/>
<path d="M145.131 232.449L141.675 235.352L155.097 251.328L158.554 248.425L145.131 232.449Z" fill="#091240"/>
<path d="M125.884 209.531C125.884 209.531 127.969 214.324 129.727 219.428C130.19 220.746 132.787 221.585 133.162 222.871C133.897 225.411 131.948 226.21 131.852 227.664C131.524 232.6 133.33 237.976 125.021 240.995C117.655 243.671 120.627 255.693 120.627 255.693C120.627 255.693 111.191 259.863 107.044 254.599C107.044 254.599 108.586 238.799 102.003 225.195C95.4196 211.592 113.26 196.583 125.884 209.531Z" fill="url(#paint3_linear)"/>
<path d="M105.878 252.33L106.677 248.432C106.677 248.432 119.74 249.151 121.058 250.381C121.952 251.29 122.694 252.336 123.255 253.481L105.878 252.33Z" fill="#25233A"/>
<path d="M131.332 339.087H103.608C99.294 338.951 97.5044 338.176 97.6162 333.919C97.824 326.147 97.6162 272.516 99.7015 260.43C100.972 252.993 106.429 251.555 107.635 251.324H107.859C107.859 251.324 116.12 252.035 119.548 251.987C123.199 251.931 127.665 257.283 127.665 257.283C127.665 257.283 130.509 268.298 133.05 277.668C134.288 282.253 135.447 286.455 136.182 288.763C137.716 293.66 139.465 316.226 140.392 329.43C140.548 331.828 139.745 334.191 138.16 335.998C136.576 337.806 134.338 338.911 131.939 339.071L131.332 339.087Z" fill="#FFC93C"/>
<path d="M131.332 339.087H123.342L120.146 274.081L133.05 277.628C134.288 282.213 135.446 286.415 136.182 288.723C137.716 293.62 139.465 316.186 140.392 329.39C140.561 331.786 139.772 334.151 138.197 335.965C136.622 337.779 134.391 338.893 131.995 339.063L131.332 339.087Z" fill="url(#paint4_linear)"/>
<path d="M125.883 209.531L122.792 209.196C122.737 210.171 122.46 211.121 121.98 211.973C121.501 212.825 120.833 213.555 120.027 214.108C119.641 213.487 119.087 212.989 118.429 212.67C117.295 213.988 118.621 215.945 118.645 217.671C118.588 218.488 118.421 219.294 118.15 220.067C117.691 221.798 117.61 223.606 117.91 225.371C116.743 225.283 116.192 223.718 115.058 223.486C113.923 223.254 113.164 224.285 112.884 225.267C112.609 226.445 112.811 227.684 113.448 228.713C114.084 229.742 115.103 230.476 116.28 230.755H116.44C116.703 230.795 117.015 230.835 117.159 231.059C117.237 231.217 117.265 231.395 117.239 231.57C117.208 233.797 116.814 236.004 116.072 238.104C115.309 240.219 113.753 241.955 111.734 242.945C110.336 243.56 108.378 243.512 107.611 242.146C107.731 242.857 106.868 243.424 106.157 243.272C105.476 243.04 104.906 242.561 104.559 241.93C102.322 238.671 101.747 234.605 100.437 230.875C99.2943 227.616 97.5685 224.588 96.2423 221.393C94.916 218.198 93.9572 214.723 94.4766 211.312C94.894 208.846 96.0387 206.56 97.7639 204.749C99.4892 202.937 101.716 201.682 104.16 201.144C105.076 201.026 105.977 200.806 106.844 200.489C107.592 200.059 108.317 199.593 109.018 199.091C110.514 198.36 112.147 197.952 113.811 197.893C115.544 197.767 117.286 197.802 119.012 197.997C125.404 198.484 125.156 204.571 125.62 205.881C125.652 206.216 126.235 209.571 125.883 209.531Z" fill="#3F3D56"/>
<path d="M147.12 233.75C147.153 233.137 147.302 232.535 147.559 231.977C147.692 231.699 147.902 231.465 148.164 231.304C148.426 231.142 148.729 231.06 149.037 231.066C149.836 231.154 150.284 231.921 150.635 232.608C151.147 233.583 151.65 234.557 152.153 235.54C153.312 235.005 154.63 235.931 155.349 236.994C156.068 238.056 156.476 239.342 157.49 240.101C157.807 240.293 158.093 240.533 158.337 240.812C158.588 241.278 158.67 241.817 158.569 242.337L158.401 244.398C158.297 245.74 158.129 247.218 157.155 248.161C156.235 248.874 155.121 249.292 153.959 249.359C152.95 249.566 151.913 249.607 150.891 249.479C149.487 249.111 148.196 248.4 147.136 247.41C145.594 246.164 141.383 242.09 144.14 240.468C145.21 239.837 145.794 240.564 146.537 239.318C147.28 238.072 147.008 235.148 147.12 233.75Z" fill="url(#paint5_linear)"/>
<path d="M157.882 277.436C155.708 287.022 148.949 292.613 142.134 293.788C139.051 294.371 135.862 293.924 133.058 292.518C124.429 288.06 115.217 264.624 115.681 257.211C115.905 253.664 117.423 252.011 119.532 251.971C121.833 251.915 124.845 253.792 127.649 257.243C130.454 260.694 132.763 265.335 135.095 268.793C135.909 270.085 136.893 271.262 138.02 272.292C138.694 272.908 139.522 273.331 140.417 273.514C141.015 273.581 141.621 273.52 142.195 273.337C142.769 273.154 143.298 272.852 143.748 272.452C150.14 267.507 147.567 248.145 147.567 248.145L150.867 247.953L157.626 247.554C157.626 247.554 161.054 263.362 157.882 277.436Z" fill="#FFC93C"/>
<path d="M208.639 178.282H206.13V177.484C206.155 177.253 206.122 177.019 206.034 176.805C205.999 176.753 205.951 176.713 205.895 176.688C205.838 176.662 205.776 176.653 205.715 176.661C205.642 176.656 205.569 176.671 205.504 176.705C205.439 176.739 205.385 176.79 205.347 176.852C205.256 177.038 205.215 177.245 205.227 177.452C205.213 177.725 205.259 177.998 205.363 178.25C205.574 178.522 205.849 178.739 206.162 178.881C207.013 179.312 207.775 179.901 208.407 180.615C208.766 181.288 208.927 182.05 208.871 182.811C208.902 183.356 208.815 183.901 208.615 184.409C208.394 184.806 208.044 185.115 207.624 185.288C207.084 185.527 206.498 185.647 205.906 185.639C205.272 185.657 204.644 185.517 204.077 185.232C203.629 185.019 203.273 184.65 203.078 184.193C202.902 183.617 202.823 183.015 202.847 182.412V181.741H205.331V182.987C205.306 183.24 205.342 183.494 205.435 183.73C205.475 183.789 205.531 183.835 205.596 183.865C205.66 183.895 205.732 183.906 205.803 183.898C205.882 183.902 205.96 183.884 206.03 183.848C206.101 183.811 206.16 183.757 206.202 183.69C206.3 183.498 206.344 183.282 206.33 183.067C206.378 182.654 206.291 182.237 206.082 181.877C205.698 181.525 205.281 181.212 204.836 180.942C204.374 180.655 203.933 180.335 203.518 179.984C203.279 179.761 203.094 179.488 202.974 179.185C202.671 178.177 202.702 177.098 203.062 176.11C203.287 175.728 203.629 175.428 204.037 175.255C204.543 175.045 205.087 174.942 205.635 174.951C206.243 174.934 206.848 175.049 207.409 175.287C207.823 175.445 208.169 175.745 208.383 176.134C208.574 176.69 208.656 177.279 208.623 177.867L208.639 178.282Z" fill="#FFC93C"/>
<path d="M216.572 175.175H221.03V177.228H219.249V179.177H220.919V181.134H219.249V183.395H221.206V185.455H216.572V175.175Z" fill="#FFC93C"/>
<path d="M233.478 175.175L235.004 185.455H232.272L232.128 183.602H231.169L231.01 185.455H228.245L229.611 175.175H233.478ZM232.056 181.781C231.918 180.615 231.782 179.177 231.649 177.468C231.377 179.433 231.207 180.87 231.137 181.781H232.056Z" fill="#FFC93C"/>
<path d="M242.339 175.175H244.232C245.087 175.151 245.942 175.199 246.789 175.319C247.237 175.414 247.63 175.68 247.884 176.062C248.209 176.646 248.356 177.312 248.307 177.979C248.354 178.528 248.252 179.08 248.011 179.576C247.864 179.735 247.686 179.862 247.489 179.95C247.291 180.038 247.077 180.085 246.861 180.088C247.263 180.152 247.636 180.336 247.932 180.615C248.088 180.79 248.206 180.997 248.275 181.222C248.332 181.726 248.354 182.233 248.339 182.74V185.455H245.822V182.037C245.856 181.691 245.812 181.341 245.694 181.014C245.607 180.886 245.375 180.814 245.007 180.814V185.455H242.339V175.175ZM245.007 176.932V179.217C245.225 179.233 245.442 179.192 245.639 179.097C245.766 179.009 245.822 178.746 245.822 178.298V177.691C245.84 177.578 245.834 177.463 245.804 177.353C245.774 177.242 245.72 177.14 245.647 177.052C245.453 176.941 245.228 176.899 245.007 176.932Z" fill="#FFC93C"/>
<path d="M262.465 179.648H259.788V177.859C259.812 177.534 259.782 177.208 259.7 176.892C259.665 176.826 259.61 176.772 259.543 176.737C259.476 176.703 259.4 176.69 259.325 176.701C259.239 176.689 259.151 176.705 259.075 176.747C258.999 176.789 258.938 176.854 258.902 176.932C258.828 177.265 258.799 177.606 258.814 177.947V182.74C258.786 183.068 258.802 183.398 258.862 183.722C258.895 183.798 258.952 183.861 259.024 183.903C259.095 183.945 259.179 183.962 259.261 183.954C259.344 183.965 259.428 183.949 259.501 183.907C259.573 183.865 259.629 183.8 259.661 183.722C259.748 183.37 259.78 183.006 259.756 182.644V181.326H262.433V181.725C262.468 182.486 262.39 183.248 262.201 183.986C262.03 184.473 261.697 184.887 261.258 185.16C260.685 185.511 260.021 185.686 259.349 185.663C258.678 185.689 258.012 185.541 257.415 185.232C257.178 185.112 256.967 184.947 256.794 184.746C256.622 184.544 256.49 184.31 256.409 184.058C256.215 183.32 256.131 182.559 256.161 181.797V178.794C256.153 178.236 256.177 177.679 256.233 177.124C256.295 176.735 256.451 176.368 256.688 176.054C256.96 175.699 257.321 175.424 257.735 175.255C258.296 175.035 258.896 174.936 259.498 174.963C260.099 174.991 260.688 175.145 261.226 175.415C261.687 175.66 262.044 176.063 262.233 176.549C262.427 177.24 262.511 177.957 262.481 178.674L262.465 179.648Z" fill="#FFC93C"/>
<path d="M276.438 175.175V185.455H273.762V181.134H272.963V185.455H270.286V175.175H272.963V178.849H273.762V175.175H276.438Z" fill="#FFC93C"/>
<path opacity="0.24" d="M102.626 337.825C102.994 338.208 103.331 338.619 103.633 339.055C99.3185 338.927 97.5288 338.152 97.6407 333.895C97.8484 326.123 97.6407 272.492 99.7259 260.406C100.996 252.969 106.453 251.532 107.66 251.3H107.859C105.085 254.728 103.283 258.839 102.642 263.202C101.699 270.215 100.405 335.493 102.626 337.825Z" fill="white"/>
<path opacity="0.24" d="M142.134 293.788C139.051 294.371 135.862 293.924 133.058 292.518C124.429 288.06 115.217 264.624 115.681 257.211C115.905 253.664 117.423 252.011 119.532 251.971C119.532 252.77 116.072 261.429 126.491 279.833C133.522 292.262 140.289 292.781 142.134 293.788Z" fill="white"/>
<path d="M138.02 272.291C136.728 271.432 135.713 270.217 135.096 268.793C135.909 270.085 136.893 271.261 138.02 272.291Z" fill="white"/>
<path opacity="0.24" d="M140.424 273.546C141.023 273.612 141.629 273.552 142.203 273.369C142.777 273.186 143.306 272.884 143.755 272.484C150.147 267.539 147.574 248.177 147.574 248.177L150.874 247.985C150.874 247.985 154.118 278.611 140.424 273.546Z" fill="white"/>
<path opacity="0.24" d="M90.042 298.309C88.3802 308.853 97.7839 318.342 97.7839 318.342V321.913C91.9915 316.585 80.2069 302.007 91.584 278.946C91.584 278.946 96.8172 264.688 99.7573 258.585V260.406C99.7573 260.406 91.7118 287.789 90.042 298.309Z" fill="white"/>
<path opacity="0.24" d="M145.561 466.534C145.594 467.37 145.712 468.199 145.913 469.011L144.595 466.534L144.531 466.415L140.424 407.639C140.424 407.639 121.201 384.219 110.016 367.133C98.8306 350.046 100.748 338.76 100.748 338.76H102.977C103.21 338.842 103.437 338.94 103.656 339.055C103.656 339.055 105.869 359.241 140.576 402.639C140.576 402.639 147.415 408.933 145.841 432.793C144.419 453.969 145.258 462.86 145.561 466.534Z" fill="white"/>
<path opacity="0.24" d="M110.088 412.823L91.5843 466.534H88.8359L106.597 410.619C106.597 410.619 107.396 383.891 102.738 369.409C99.6697 359.752 99.8535 348.561 100.341 342.17L103.649 354.951C104.256 361.984 105.663 368.925 107.843 375.64C111.318 385.816 110.088 412.823 110.088 412.823Z" fill="white"/>
</g>
<defs>
<linearGradient id="paint0_linear" x1="81.2298" y1="95.2399" x2="79.4329" y2="172.611" gradientUnits="userSpaceOnUse">
<stop stop-opacity="0"/>
<stop offset="0.91" stop-opacity="0.8"/>
<stop offset="1"/>
</linearGradient>
<linearGradient id="paint1_linear" x1="862.542" y1="3365.52" x2="847.233" y2="2706.31" gradientUnits="userSpaceOnUse">
<stop stop-opacity="0"/>
<stop offset="0.91" stop-opacity="0.8"/>
<stop offset="1"/>
</linearGradient>
<linearGradient id="paint2_linear" x1="955.637" y1="3363.54" x2="940.327" y2="2704.41" gradientUnits="userSpaceOnUse">
<stop stop-opacity="0"/>
<stop offset="0.91" stop-opacity="0.8"/>
<stop offset="1"/>
</linearGradient>
<linearGradient id="paint3_linear" x1="100.589" y1="230.923" x2="133.33" y2="230.923" gradientUnits="userSpaceOnUse">
<stop stop-color="#ECC4D7"/>
<stop offset="0.42" stop-color="#EFD4D1"/>
<stop offset="1" stop-color="#F2EAC9"/>
</linearGradient>
<linearGradient id="paint4_linear" x1="2859.37" y1="11304.2" x2="7880.89" y2="14035.7" gradientUnits="userSpaceOnUse">
<stop stop-opacity="0"/>
<stop offset="0.91" stop-opacity="0.8"/>
<stop offset="1"/>
</linearGradient>
<linearGradient id="paint5_linear" x1="7270.8" y1="5460.82" x2="7563.37" y2="5422.4" gradientUnits="userSpaceOnUse">
<stop stop-color="#ECC4D7"/>
<stop offset="0.42" stop-color="#EFD4D1"/>
<stop offset="1" stop-color="#F2EAC9"/>
</linearGradient>
<clipPath id="clip0">
<rect width="477" height="476" fill="white"/>
</clipPath>
</defs>
</svg>
